<mxfile host="app.diagrams.net" modified="2023-06-01T00:44:25.198Z" agent="Mozilla/5.0 (Windows NT 10.0; Win64; x64) AppleWebKit/537.36 (KHTML, like Gecko) Chrome/113.0.0.0 Safari/537.36" etag="-Zgz7KTk5iRAn1E1MSiM" version="21.3.5" type="device">
  <diagram name="페이지-1" id="I4NSwc0PV8kEBJVm7qPu">
    <mxGraphModel dx="1434" dy="756" grid="1" gridSize="10" guides="1" tooltips="1" connect="1" arrows="1" fold="1" page="1" pageScale="1" pageWidth="4681" pageHeight="3300" math="0" shadow="0">
      <root>
        <mxCell id="0" />
        <mxCell id="1" parent="0" />
        <mxCell id="QIrzD-fUTXR76PZH19gG-10" style="edgeStyle=orthogonalEdgeStyle;rounded=0;orthogonalLoop=1;jettySize=auto;html=1;exitX=0.5;exitY=0.5;exitDx=0;exitDy=0;exitPerimeter=0;entryX=0;entryY=0.5;entryDx=0;entryDy=0;" edge="1" parent="1" source="QIrzD-fUTXR76PZH19gG-1" target="QIrzD-fUTXR76PZH19gG-5">
          <mxGeometry relative="1" as="geometry" />
        </mxCell>
        <mxCell id="QIrzD-fUTXR76PZH19gG-1" value="유저" style="shape=umlActor;verticalLabelPosition=bottom;verticalAlign=top;html=1;outlineConnect=0;" vertex="1" parent="1">
          <mxGeometry x="440" y="80" width="40" height="80" as="geometry" />
        </mxCell>
        <mxCell id="QIrzD-fUTXR76PZH19gG-9" style="edgeStyle=orthogonalEdgeStyle;rounded=0;orthogonalLoop=1;jettySize=auto;html=1;entryX=0.5;entryY=0;entryDx=0;entryDy=0;" edge="1" parent="1" source="QIrzD-fUTXR76PZH19gG-5" target="QIrzD-fUTXR76PZH19gG-8">
          <mxGeometry relative="1" as="geometry" />
        </mxCell>
        <mxCell id="QIrzD-fUTXR76PZH19gG-11" style="rounded=0;orthogonalLoop=1;jettySize=auto;html=1;exitX=0.5;exitY=1;exitDx=0;exitDy=0;entryX=0.5;entryY=0;entryDx=0;entryDy=0;" edge="1" parent="1" source="QIrzD-fUTXR76PZH19gG-5" target="QIrzD-fUTXR76PZH19gG-6">
          <mxGeometry relative="1" as="geometry" />
        </mxCell>
        <mxCell id="QIrzD-fUTXR76PZH19gG-12" style="edgeStyle=none;shape=connector;rounded=0;orthogonalLoop=1;jettySize=auto;html=1;entryX=0.5;entryY=0;entryDx=0;entryDy=0;labelBackgroundColor=default;strokeColor=default;fontFamily=Helvetica;fontSize=11;fontColor=default;endArrow=classic;" edge="1" parent="1" target="QIrzD-fUTXR76PZH19gG-7">
          <mxGeometry relative="1" as="geometry">
            <mxPoint x="620" y="160" as="sourcePoint" />
          </mxGeometry>
        </mxCell>
        <mxCell id="QIrzD-fUTXR76PZH19gG-23" style="edgeStyle=none;shape=connector;rounded=0;orthogonalLoop=1;jettySize=auto;html=1;exitX=1;exitY=0.5;exitDx=0;exitDy=0;entryX=0;entryY=0.5;entryDx=0;entryDy=0;labelBackgroundColor=default;strokeColor=default;fontFamily=Helvetica;fontSize=11;fontColor=default;endArrow=classic;" edge="1" parent="1" source="QIrzD-fUTXR76PZH19gG-5" target="QIrzD-fUTXR76PZH19gG-21">
          <mxGeometry relative="1" as="geometry" />
        </mxCell>
        <mxCell id="QIrzD-fUTXR76PZH19gG-5" value="로그인하기" style="ellipse;whiteSpace=wrap;html=1;" vertex="1" parent="1">
          <mxGeometry x="560" y="80" width="120" height="80" as="geometry" />
        </mxCell>
        <mxCell id="QIrzD-fUTXR76PZH19gG-16" style="edgeStyle=none;shape=connector;rounded=0;orthogonalLoop=1;jettySize=auto;html=1;entryX=0.5;entryY=0;entryDx=0;entryDy=0;labelBackgroundColor=default;strokeColor=default;fontFamily=Helvetica;fontSize=11;fontColor=default;endArrow=classic;" edge="1" parent="1" source="QIrzD-fUTXR76PZH19gG-6" target="QIrzD-fUTXR76PZH19gG-14">
          <mxGeometry relative="1" as="geometry" />
        </mxCell>
        <mxCell id="QIrzD-fUTXR76PZH19gG-6" value="회원가입하기" style="ellipse;whiteSpace=wrap;html=1;" vertex="1" parent="1">
          <mxGeometry x="440" y="220" width="120" height="80" as="geometry" />
        </mxCell>
        <mxCell id="QIrzD-fUTXR76PZH19gG-13" style="edgeStyle=none;shape=connector;rounded=0;orthogonalLoop=1;jettySize=auto;html=1;entryX=0.5;entryY=0;entryDx=0;entryDy=0;labelBackgroundColor=default;strokeColor=default;fontFamily=Helvetica;fontSize=11;fontColor=default;endArrow=classic;exitX=0.5;exitY=1;exitDx=0;exitDy=0;" edge="1" parent="1" source="QIrzD-fUTXR76PZH19gG-7" target="QIrzD-fUTXR76PZH19gG-8">
          <mxGeometry relative="1" as="geometry" />
        </mxCell>
        <mxCell id="QIrzD-fUTXR76PZH19gG-26" style="edgeStyle=none;shape=connector;rounded=0;orthogonalLoop=1;jettySize=auto;html=1;entryX=0;entryY=0.5;entryDx=0;entryDy=0;labelBackgroundColor=default;strokeColor=default;fontFamily=Helvetica;fontSize=11;fontColor=default;endArrow=classic;" edge="1" parent="1" source="QIrzD-fUTXR76PZH19gG-7" target="QIrzD-fUTXR76PZH19gG-19">
          <mxGeometry relative="1" as="geometry" />
        </mxCell>
        <mxCell id="QIrzD-fUTXR76PZH19gG-7" value="아이디찾기" style="ellipse;whiteSpace=wrap;html=1;" vertex="1" parent="1">
          <mxGeometry x="680" y="220" width="120" height="80" as="geometry" />
        </mxCell>
        <mxCell id="QIrzD-fUTXR76PZH19gG-27" style="edgeStyle=orthogonalEdgeStyle;shape=connector;rounded=0;orthogonalLoop=1;jettySize=auto;html=1;entryX=0;entryY=0.5;entryDx=0;entryDy=0;labelBackgroundColor=default;strokeColor=default;fontFamily=Helvetica;fontSize=11;fontColor=default;endArrow=classic;" edge="1" parent="1" source="QIrzD-fUTXR76PZH19gG-8" target="QIrzD-fUTXR76PZH19gG-19">
          <mxGeometry relative="1" as="geometry" />
        </mxCell>
        <mxCell id="QIrzD-fUTXR76PZH19gG-8" value="비밀번호찾기" style="ellipse;whiteSpace=wrap;html=1;" vertex="1" parent="1">
          <mxGeometry x="560" y="360" width="120" height="80" as="geometry" />
        </mxCell>
        <mxCell id="QIrzD-fUTXR76PZH19gG-18" style="edgeStyle=none;shape=connector;rounded=0;orthogonalLoop=1;jettySize=auto;html=1;entryX=0;entryY=0.5;entryDx=0;entryDy=0;labelBackgroundColor=default;strokeColor=default;fontFamily=Helvetica;fontSize=11;fontColor=default;endArrow=classic;" edge="1" parent="1" source="QIrzD-fUTXR76PZH19gG-14" target="QIrzD-fUTXR76PZH19gG-17">
          <mxGeometry relative="1" as="geometry" />
        </mxCell>
        <mxCell id="QIrzD-fUTXR76PZH19gG-14" value="유효성검사하기" style="ellipse;whiteSpace=wrap;html=1;" vertex="1" parent="1">
          <mxGeometry x="440" y="440" width="120" height="80" as="geometry" />
        </mxCell>
        <mxCell id="QIrzD-fUTXR76PZH19gG-15" value="&lt;h1&gt;유효성검사&lt;/h1&gt;&lt;div&gt;이메일 중복검사&lt;/div&gt;&lt;div&gt;이메일 형식검사&lt;/div&gt;&lt;div&gt;비밀번호 적합성 검사&lt;/div&gt;" style="text;html=1;strokeColor=none;fillColor=none;spacing=5;spacingTop=-20;whiteSpace=wrap;overflow=hidden;rounded=0;fontSize=11;fontFamily=Helvetica;fontColor=default;" vertex="1" parent="1">
          <mxGeometry x="440" y="520" width="190" height="120" as="geometry" />
        </mxCell>
        <mxCell id="QIrzD-fUTXR76PZH19gG-20" style="edgeStyle=none;shape=connector;rounded=0;orthogonalLoop=1;jettySize=auto;html=1;entryX=0.5;entryY=1;entryDx=0;entryDy=0;labelBackgroundColor=default;strokeColor=default;fontFamily=Helvetica;fontSize=11;fontColor=default;endArrow=classic;" edge="1" parent="1" source="QIrzD-fUTXR76PZH19gG-17" target="QIrzD-fUTXR76PZH19gG-19">
          <mxGeometry relative="1" as="geometry" />
        </mxCell>
        <mxCell id="QIrzD-fUTXR76PZH19gG-17" value="회원정보 저장하기" style="ellipse;whiteSpace=wrap;html=1;" vertex="1" parent="1">
          <mxGeometry x="960" y="440" width="120" height="80" as="geometry" />
        </mxCell>
        <mxCell id="QIrzD-fUTXR76PZH19gG-19" value="회원정보&lt;br&gt;Table" style="shape=internalStorage;whiteSpace=wrap;html=1;backgroundOutline=1;fontFamily=Helvetica;fontSize=11;fontColor=default;" vertex="1" parent="1">
          <mxGeometry x="960" y="220" width="120" height="80" as="geometry" />
        </mxCell>
        <mxCell id="QIrzD-fUTXR76PZH19gG-24" style="edgeStyle=orthogonalEdgeStyle;shape=connector;rounded=0;orthogonalLoop=1;jettySize=auto;html=1;exitX=1;exitY=0.5;exitDx=0;exitDy=0;entryX=0.5;entryY=0;entryDx=0;entryDy=0;labelBackgroundColor=default;strokeColor=default;fontFamily=Helvetica;fontSize=11;fontColor=default;endArrow=classic;" edge="1" parent="1" source="QIrzD-fUTXR76PZH19gG-21" target="QIrzD-fUTXR76PZH19gG-19">
          <mxGeometry relative="1" as="geometry" />
        </mxCell>
        <mxCell id="QIrzD-fUTXR76PZH19gG-21" value="회원정보 조회&lt;br&gt;로그인 승인하기" style="ellipse;whiteSpace=wrap;html=1;" vertex="1" parent="1">
          <mxGeometry x="760" y="80" width="120" height="80" as="geometry" />
        </mxCell>
      </root>
    </mxGraphModel>
  </diagram>
</mxfile>
